<?xml version="1.0" encoding="UTF-8" standalone="no"?>
<svg
   xmlns:dc="http://purl.org/dc/elements/1.1/"
   xmlns:cc="http://creativecommons.org/ns#"
   xmlns:rdf="http://www.w3.org/1999/02/22-rdf-syntax-ns#"
   xmlns:svg="http://www.w3.org/2000/svg"
   xmlns="http://www.w3.org/2000/svg"
   xmlns:sodipodi="http://sodipodi.sourceforge.net/DTD/sodipodi-0.dtd"
   xmlns:inkscape="http://www.inkscape.org/namespaces/inkscape"
   width="11in"
   height="8.5in"
   viewBox="0 0 279.4 215.9"
   version="1.1"
   id="svg8"
   sodipodi:docname="inklined.svg"
   inkscape:version="1.0.2 (e86c870879, 2021-01-15)">
  <defs
     id="defs2">
    <rect
       x="16.570711"
       y="168.3798"
       width="266.73499"
       height="51.315749"
       id="rect86" />
  </defs>
  <sodipodi:namedview
     id="base"
     pagecolor="#ffffff"
     bordercolor="#666666"
     borderopacity="1.0"
     inkscape:pageopacity="0.0"
     inkscape:pageshadow="2"
     inkscape:zoom="0.7"
     inkscape:cx="464.31449"
     inkscape:cy="483.07564"
     inkscape:document-units="mm"
     inkscape:current-layer="layer1"
     inkscape:document-rotation="0"
     showgrid="false"
     units="in"
     inkscape:window-width="1920"
     inkscape:window-height="1017"
     inkscape:window-x="-8"
     inkscape:window-y="-8"
     inkscape:window-maximized="1" />
  <metadata
     id="metadata5">
    <rdf:RDF>
      <cc:Work
         rdf:about="">
        <dc:format>image/svg+xml</dc:format>
        <dc:type
           rdf:resource="http://purl.org/dc/dcmitype/StillImage" />
        <dc:title></dc:title>
      </cc:Work>
    </rdf:RDF>
  </metadata>
  <g
     inkscape:label="Layer 1"
     inkscape:groupmode="layer"
     id="layer1">
    <path
       style="fill:#008080;stroke:#ffffff;stroke-width:0.0132292;stroke-linecap:round;stroke-linejoin:round;stroke-miterlimit:0"
       id="path44"
       d="m 13.168717,46.578646 c 2.134673,-0.343302 4.281483,-0.593375 6.429488,-0.835432 3.061024,-0.330629 6.116123,-0.706747 9.171917,-1.081519 3.075622,-0.383709 6.160071,-0.69324 9.24728,-0.966803 3.090071,-0.279472 6.193541,-0.29826 9.292211,-0.392891 3.230163,-0.05338 6.459906,-0.02429 9.689987,-0.09019 2.590247,-0.06041 5.180904,-0.10477 7.771852,-0.114893 0.279918,5.29e-4 0.559834,7.94e-4 0.839753,0.0013 0,0 3.100533,-2.256938 3.100533,-2.256938 v 0 c -0.288661,0.0056 -0.577321,0.01111 -0.865981,0.01667 -2.626932,0.04921 -5.253435,0.111722 -7.879715,0.1886 -3.223501,0.07652 -6.446031,0.03895 -9.670042,0.07046 -3.104325,0.112477 -6.214597,0.110432 -9.311629,0.38209 -3.089347,0.271735 -6.177016,0.568886 -9.254138,0.957223 -3.047844,0.361031 -6.090017,0.767143 -9.145131,1.066673 -2.084807,0.221104 -4.17031,0.435578 -6.249309,0.706067 0,0 -3.167076,2.349595 -3.167076,2.349595 z" />
    <path
       style="fill:#008080;stroke:#ffffff;stroke-width:0.0132292;stroke-linecap:round;stroke-linejoin:round;stroke-miterlimit:0"
       id="path46"
       d="m 37.835313,43.911435 c 0.266898,1.926039 0.485262,3.859218 0.695018,5.792367 0.401058,3.011357 0.520121,6.047038 0.685964,9.077102 0.179329,3.802901 0.318656,7.608046 0.445196,11.413135 0.05322,4.282025 0.268012,8.557832 0.447175,12.835594 0.191796,2.967281 0.248116,5.9416 0.416155,8.909732 0.102762,2.101424 0.255511,4.199271 0.385138,6.299052 0.138941,1.927343 0.290087,3.852423 0.474533,5.775893 0,0 3.42528,-1.79435 3.42528,-1.79435 v 0 c -0.250166,-1.90012 -0.421354,-3.806624 -0.53708,-5.719882 -0.117208,-2.099505 -0.257009,-4.197807 -0.393417,-6.296125 -0.198014,-2.938812 -0.370981,-5.879431 -0.581345,-8.817531 -0.20773,-4.275145 -0.416021,-8.549536 -0.445612,-12.830698 -0.110519,-3.820883 -0.227287,-7.641715 -0.366717,-11.461568 -0.14268,-3.044851 -0.283049,-6.089914 -0.648116,-9.118666 -0.194352,-1.968619 -0.389848,-3.93737 -0.497078,-5.913098 0,0 -3.505094,1.849043 -3.505094,1.849043 z" />
    <path
       style="fill:#008080;stroke:#ffffff;stroke-width:0.0132292;stroke-linecap:round;stroke-linejoin:round;stroke-miterlimit:0"
       id="path48"
       d="m 15.808131,105.38162 c 1.812174,-0.217 3.620638,-0.46135 5.434782,-0.66166 3.434126,-0.33771 6.881057,-0.50721 10.32485,-0.71069 3.488941,-0.18817 6.979888,-0.33144 10.469996,-0.4949 3.842832,-0.22623 7.682918,-0.50086 11.522059,-0.78303 3.232592,-0.22165 6.461937,-0.48556 9.693494,-0.72262 2.484835,-0.18833 4.974246,-0.29651 7.465081,-0.35824 1.11981,-0.0191 0.571085,-0.0121 1.646164,-0.0214 0,0 3.109206,-2.264821 3.109206,-2.264821 v 0 c -1.091285,0.01736 -0.534697,0.0071 -1.669759,0.03111 -2.537711,0.08021 -5.070819,0.254754 -7.602818,0.438997 -3.227631,0.229544 -6.453267,0.480694 -9.680898,0.710784 -3.857641,0.31659 -7.715596,0.64726 -11.581685,0.84249 -3.471693,0.13726 -6.945371,0.23526 -10.413778,0.44529 -3.428214,0.22031 -6.858071,0.41346 -10.284478,0.66135 -1.754517,0.17219 -3.507423,0.37258 -5.262518,0.53044 0,0 -3.169698,2.35695 -3.169698,2.35695 z" />
    <path
       style="fill:#008080;stroke:#ffffff;stroke-width:0.0132292;stroke-linecap:round;stroke-linejoin:round;stroke-miterlimit:0"
       id="path50"
       d="m 75.032525,45.248356 c 0.762151,2.079416 1.155618,4.270248 1.583772,6.436103 0.762408,4.136017 1.202931,8.323911 1.711156,12.496842 0.703021,5.734016 1.988132,11.372289 3.242815,17.004424 1.085572,4.612675 2.209107,9.216946 3.410728,13.800871 0.436078,1.623017 0.893291,3.240132 1.339022,4.860459 0,0 3.392821,-1.853991 3.392821,-1.853991 v 0 C 89.205767,96.405178 88.704538,94.815447 88.226954,93.218372 86.8595,88.719537 85.583608,84.189259 84.492699,79.615092 83.771403,76.37473 83.053583,73.135928 82.517281,69.858344 c -0.281573,-1.720805 -0.503405,-3.508203 -0.736098,-5.239829 -0.09409,-0.700199 -0.190299,-1.400114 -0.285448,-2.100173 -0.509363,-4.18742 -0.991717,-8.380875 -1.671114,-12.544885 -0.40105,-2.219719 -0.722188,-4.460129 -1.316558,-6.639232 0,0 -3.475538,1.914131 -3.475538,1.914131 z" />
    <path
       style="fill:#008080;stroke:#ffffff;stroke-width:0.0132292;stroke-linecap:round;stroke-linejoin:round;stroke-miterlimit:0"
       id="path52"
       d="m 77.263211,47.965513 c 1.750156,1.944044 3.360979,3.99737 4.958816,6.067232 3.360293,4.394073 6.579756,8.892987 9.892715,13.322165 3.197839,4.012202 6.254946,8.12733 9.189748,12.335023 2.38986,3.559249 4.74492,7.146078 7.43853,10.485551 2.17914,2.39264 4.68948,4.452411 7.10359,6.599404 0.546,0.441933 1.03588,0.979934 1.66657,1.309521 0.0955,0.04993 0.20756,0.166256 0.30233,0.114871 3.84011,-2.082152 3.60669,-0.878152 3.59097,-3.07953 -0.24017,-4.14577 -0.85539,-8.260339 -1.54441,-12.352028 -1.22488,-5.924465 -2.70587,-11.790259 -4.22568,-17.644687 -1.39466,-5.42473 -2.738,-10.861135 -3.94299,-16.33135 -0.11077,-0.537977 -0.22154,-1.075955 -0.33231,-1.613932 0,0 -3.23533,1.742525 -3.23533,1.742525 v 0 c 0.1361,0.525801 0.27221,1.051602 0.40831,1.577401 1.44104,5.392721 2.74682,10.819465 4.15838,16.219738 1.48745,5.865408 2.99337,11.736536 4.06679,17.694595 0.63972,4.107029 1.36592,8.251021 1.20386,12.422981 -0.0501,0.243922 -0.38938,0.801317 -0.15027,0.731766 1.16096,-0.337703 2.16007,-1.08703 3.24011,-1.630545 -0.0889,0.0033 -0.18086,0.03305 -0.26678,0.0099 -0.15257,-0.04114 -0.29432,-0.118227 -0.43073,-0.197983 -0.42459,-0.248242 -0.94299,-0.678413 -1.31295,-0.966819 -2.49407,-2.037667 -5.0095,-4.07752 -7.15885,-6.488652 -2.75474,-3.2854 -5.19078,-6.815296 -7.61276,-10.34954 -2.93954,-4.204139 -5.907053,-8.390167 -9.112507,-12.39834 -3.406391,-4.354944 -6.75948,-8.759267 -9.905968,-13.306301 -1.482532,-2.123149 -3.008201,-4.212455 -4.570825,-6.276001 0,0 -3.418359,2.003052 -3.418359,2.003052 z" />
    <path
       style="fill:#008080;stroke:#ffffff;stroke-width:0.0132292;stroke-linecap:round;stroke-linejoin:round;stroke-miterlimit:0"
       id="path54"
       d="m 122.42373,51.391055 c 1.60535,4.883933 3.23383,9.760161 4.80813,14.654606 1.7008,5.007203 3.16196,10.089883 4.69487,15.149478 0.86748,2.741287 1.77131,5.471417 2.71206,8.188389 0.33251,0.807704 0.16227,0.415075 0.50902,1.178626 0,0 3.38153,-1.912049 3.38153,-1.912049 v 0 c -0.35035,-0.741362 -0.17664,-0.361185 -0.51995,-1.141068 -1.09137,-2.633303 -2.1323,-5.292447 -2.96777,-8.019532 -1.56244,-5.039619 -3.16932,-10.063813 -4.8763,-15.05676 -1.61854,-4.910963 -3.30122,-9.823857 -4.30717,-14.905897 0,0 -3.43442,1.864207 -3.43442,1.864207 z" />
    <path
       style="fill:#008080;stroke:#ffffff;stroke-width:0.0132292;stroke-linecap:round;stroke-linejoin:round;stroke-miterlimit:0"
       id="path56"
       d="m 146.93267,57.684405 c -2.04734,0.702738 -3.98633,1.643025 -5.87945,2.684452 -3.5653,1.950984 -7.02503,4.113278 -10.11963,6.755704 -0.49197,0.385437 -0.95062,0.804817 -1.40351,1.233514 -0.0831,0.07869 -0.44643,0.36169 -0.47382,0.521655 -0.0219,0.127664 0.0483,0.254497 0.0725,0.381746 0.16632,0.166425 0.31129,0.357359 0.49895,0.499277 0.56514,0.427381 1.76357,1.045154 2.33101,1.328134 1.96154,0.97822 3.98703,1.827591 5.9955,2.702673 4.07883,1.75373 8.19652,3.444627 12.09951,5.573768 0.81618,0.445239 1.61184,0.927098 2.41776,1.390645 0,0 2.88391,-1.872811 2.88391,-1.872811 v 0 c -2.01815,-1.169802 -2.79518,-1.662173 -4.88025,-2.703838 -3.13851,-1.567947 -6.3819,-2.923246 -9.59197,-4.334258 -1.4346,-0.648573 -2.75199,-1.229297 -4.16163,-1.922037 -1.41775,-0.696727 -2.89779,-1.406392 -4.07649,-2.479254 0.0892,-0.235085 0.32423,-0.406911 0.50145,-0.575307 0.42875,-0.407411 0.87858,-0.790369 1.32564,-1.177465 1.26979,-1.088027 2.5971,-2.087501 3.98533,-3.021264 0.47197,-0.31746 1.99915,-0.936588 1.43038,-0.930489 -0.64328,0.0069 -1.12621,0.622178 -1.68931,0.933265 1.82502,-1.021773 3.63176,-1.904 5.61712,-2.566509 0,0 3.11702,-2.421601 3.11702,-2.421601 z" />
    <path
       style="fill:#008080;stroke:#ffffff;stroke-width:0.0132292;stroke-linecap:round;stroke-linejoin:round;stroke-miterlimit:0"
       id="path60"
       d="m 155.21901,37.175455 c 0.6385,3.844042 1.25877,7.690813 1.95612,11.525023 1.15262,6.819691 2.32747,13.635508 3.49769,20.452204 0.56487,3.268197 1.12378,6.537142 1.69092,9.804902 0.17482,0.548722 0.18479,1.705089 0.7518,2.056361 0.10605,0.0657 0.23233,0.09098 0.3485,0.136477 0.14993,0.0067 0.29991,0.02796 0.44978,0.02005 0.76157,-0.04019 1.5145,-0.282241 2.24559,-0.475273 1.23908,-0.32716 0.84995,-0.22388 2.15805,-0.583938 2.31573,-0.713711 4.65503,-1.32687 7.03482,-1.782218 0,0 2.9817,-2.252903 2.9817,-2.252903 v 0 c -2.37553,0.446558 -4.70887,1.05674 -7.02731,1.739619 -1.5186,0.408044 -3.03892,0.871517 -4.59892,1.083911 -0.13798,0.0046 -0.26808,0.04751 -0.37709,-0.06654 -0.4089,-0.427818 -0.3591,-1.178925 -0.58689,-1.684596 -0.75447,-3.187841 -1.41585,-6.394307 -2.04075,-9.610204 -1.341,-6.772743 -2.61714,-13.560766 -3.5777,-20.399679 -0.5268,-3.923596 -1.10079,-7.845557 -1.44203,-11.790706 0,0 -3.46428,1.827516 -3.46428,1.827516 z" />
    <path
       style="fill:#008080;stroke:#ffffff;stroke-width:0.0132292;stroke-linecap:round;stroke-linejoin:round;stroke-miterlimit:0"
       id="path62"
       d="m 179.13615,41.472588 c 1.83381,-0.572852 3.6926,-1.071846 5.55806,-1.531517 1.45903,-0.311989 0.74859,-0.170252 2.13065,-0.428493 0,0 3.03031,-2.289225 3.03031,-2.289225 v 0 c -1.40947,0.268676 -0.6874,0.125068 -2.16584,0.432684 -1.82378,0.419957 -3.62099,0.940017 -5.43616,1.394952 0,0 -3.11702,2.421599 -3.11702,2.421599 z" />
    <path
       style="fill:#008080;stroke:#ffffff;stroke-width:0.0132292;stroke-linecap:round;stroke-linejoin:round;stroke-miterlimit:0"
       id="path64"
       d="m 181.71618,43.841135 c 0.90308,3.97932 1.51578,8.02041 2.13552,12.052046 0.60055,3.710151 1.06326,7.441247 1.69242,11.146642 0.31095,1.87321 0.1791,0.971446 0.40357,2.704105 0,0 3.31924,-1.753354 3.31924,-1.753354 v 0 c -0.28734,-1.713617 -0.13027,-0.821532 -0.47512,-2.675568 -0.63689,-3.683182 -1.18869,-7.381425 -1.83967,-11.062575 -0.64766,-4.081992 -1.30437,-8.164558 -1.78271,-12.270637 0,0 -3.45325,1.859341 -3.45325,1.859341 z" />
    <path
       style="fill:#008080;stroke:#ffffff;stroke-width:0.0132292;stroke-linecap:round;stroke-linejoin:round;stroke-miterlimit:0"
       id="path66"
       d="m 181.85125,73.786779 c 3.20202,-1.359595 6.47245,-2.533319 9.76139,-3.662134 0.63453,-0.216128 1.26907,-0.432256 1.90359,-0.64838 0,0 2.83622,-2.208078 2.83622,-2.208078 v 0 c -0.64605,0.225274 -1.29209,0.450546 -1.93812,0.67582 -3.17309,1.089615 -6.33782,2.197682 -9.46693,3.408074 0,0 -3.09615,2.434698 -3.09615,2.434698 z" />
    <path
       style="fill:#008080;stroke:#ffffff;stroke-width:0.0132292;stroke-linecap:round;stroke-linejoin:round;stroke-miterlimit:0"
       id="path68"
       d="m 198.28501,36.570745 c 1.17025,3.894873 2.16802,7.843149 3.21449,11.773535 0.24339,0.943636 0.47882,1.889363 0.73018,2.830909 1.61407,6.046168 0.10502,0.167021 1.81446,6.649717 0.82862,3.142348 1.57282,6.298679 2.27909,9.470194 0.11227,0.689227 0.22454,1.378451 0.33681,2.067674 0,0 3.1615,-1.688589 3.1615,-1.688589 v 0 c -0.15424,-0.672798 -0.30847,-1.3456 -0.46271,-2.018398 -1.67216,-6.30002 -3.25887,-12.621262 -4.84963,-18.942235 -1.00123,-3.988601 -2.01157,-7.977497 -2.76718,-12.021801 0,0 -3.45701,1.878994 -3.45701,1.878994 z" />
    <path
       style="fill:#008080;stroke:#ffffff;stroke-width:0.0132292;stroke-linecap:round;stroke-linejoin:round;stroke-miterlimit:0"
       id="path70"
       d="m 199.74674,38.166505 c 3.17059,4.183901 6.10877,8.53799 9.09718,12.852408 2.37135,3.438747 4.81669,6.825665 7.31336,10.174343 1.07931,1.447638 2.63798,3.528721 3.82445,4.967092 0.43802,0.531018 0.90564,1.036902 1.35847,1.555355 0.40246,0.373433 1.08924,1.193231 1.76133,1.306105 0.20148,0.03384 0.44237,-0.005 0.59706,-0.138453 1.21852,-1.051306 2.67205,-1.962693 3.46289,-3.364342 0.40666,-0.720751 -0.0851,-1.653566 -0.16705,-2.477053 -0.11461,-1.151072 -0.2817,-2.29631 -0.42255,-3.444467 -1.09973,-7.356478 -2.32566,-14.694334 -3.5143,-22.037217 -0.1219,-0.794499 -0.2438,-1.588998 -0.3657,-2.383499 0,0 -3.10844,1.651659 -3.10844,1.651659 v 0 c 0.15106,0.77956 0.30211,1.559118 0.45317,2.338676 1.41243,7.28065 2.78219,14.579962 3.61286,21.953963 0.0764,1.171869 0.19935,2.341629 0.22926,3.515603 0.0213,0.836679 -0.78254,2.061409 -0.0758,2.509703 0.84623,0.536765 1.9267,-0.594117 2.92279,-0.703853 0.20318,-0.02238 -0.23667,0.390353 -0.4372,0.430025 -0.26044,0.05153 -0.53993,-0.06402 -0.77334,-0.190527 -0.40647,-0.220307 -0.74052,-0.55377 -1.11077,-0.830656 -0.49082,-0.487476 -1.00097,-0.956236 -1.47246,-1.462426 -4.25904,-4.57245 -7.80371,-9.848414 -11.28914,-15.012668 -2.88395,-4.365442 -5.91147,-8.648332 -8.49804,-13.200932 0,0 -3.39806,1.991161 -3.39806,1.991161 z" />
    <path
       style="fill:#008080;stroke:#ffffff;stroke-width:0.0132292;stroke-linecap:round;stroke-linejoin:round;stroke-miterlimit:0"
       id="path72"
       d="m 241.79447,31.748166 c -1.98925,0.416147 -4.0098,0.648814 -6.0193,0.941615 -0.3475,0.0496 -0.969,0.120486 -1.32466,0.232085 -0.15942,0.05002 -0.32054,0.107878 -0.45901,0.201379 -1.21749,0.822103 -2.52142,1.544434 -3.60135,2.54036 -0.23744,0.218967 -0.1362,0.631878 -0.18473,0.951201 -0.0607,0.399394 -0.0951,0.802338 -0.14271,1.203508 -0.21755,3.749836 -0.38532,7.502038 -0.38475,11.258499 -0.0114,3.114119 0.44571,6.213761 1.19653,9.23182 0.16897,0.679226 0.33426,1.361859 0.56942,2.021097 0.20004,0.560763 0.48842,1.085966 0.73263,1.628952 0.74141,1.203854 1.67722,2.110354 3.07345,2.481461 1.33162,0.353931 2.6868,0.105796 4.0156,-0.08702 1.487,-0.302787 2.94443,-0.728303 4.40641,-1.130427 0,0 2.94449,-2.264318 2.94449,-2.264318 v 0 c -1.45052,0.411097 -2.89697,0.842637 -4.37193,1.160084 -1.26962,0.206995 -2.58433,0.484916 -3.87251,0.219012 -1.34144,-0.276897 -2.26661,-1.062178 -3.01884,-2.177661 -0.25461,-0.51621 -0.55409,-1.012616 -0.76383,-1.548627 -0.25057,-0.640342 -0.43697,-1.304973 -0.61289,-1.969707 -0.79384,-2.999571 -1.1182,-6.095304 -1.09812,-9.193816 0.0293,-3.767404 0.14633,-7.54122 0.56104,-11.288304 0.0696,-0.396574 0.11409,-0.798365 0.20871,-1.189715 0.0729,-0.301549 0.59515,-0.952122 0.29259,-0.883529 -1.08559,0.246124 -1.97726,1.024567 -2.98645,1.494274 -0.15327,0.07134 0.25905,-0.223639 0.41185,-0.295968 0.37528,-0.177649 0.96328,-0.237588 1.35037,-0.299865 1.97292,-0.322273 3.95408,-0.587008 5.93479,-0.856539 0,0 3.1432,-2.37985 3.1432,-2.379851 z" />
    <path
       style="fill:#008080;stroke:#ffffff;stroke-width:0.0132292;stroke-linecap:round;stroke-linejoin:round;stroke-miterlimit:0"
       id="path74"
       d="m 243.52355,44.526858 c -2.12557,1.02742 -4.40296,1.648212 -6.6591,2.30659 0,0 -2.69611,2.073944 -2.69611,2.073944 v 0 c 2.13279,-0.574987 4.29533,-1.098269 6.32682,-1.987153 0,0 3.02839,-2.393381 3.02839,-2.393381 z" />
    <path
       style="fill:#008080;stroke:#ffffff;stroke-width:0.0132292;stroke-linecap:round;stroke-linejoin:round;stroke-miterlimit:0"
       id="path82"
       d="m -2.0070201,151.36618 c 7.1879972,-2.06601 14.4685911,-3.80241 21.7098081,-5.67224 10.002242,-2.53801 19.891078,-5.4886 29.82687,-8.26887 14.375021,-3.93641 28.729765,-7.94553 43.110922,-11.85985 12.77436,-3.53903 25.67086,-6.59555 38.58547,-9.57076 13.6833,-3.08398 27.37607,-6.12548 41.09123,-9.06465 13.90188,-2.9697 27.84008,-5.75503 41.82211,-8.319815 14.36084,-2.682097 28.84162,-4.68513 43.35017,-6.371963 6.17191,-0.666101 12.32575,-1.496128 18.5094,-2.050409 1.68386,-0.123918 0.88649,-0.07245 2.39189,-0.158782 0,0 6.27621,-4.623752 6.27621,-4.623752 v 0 c -1.58123,0.118409 -0.74401,0.04864 -2.51122,0.214667 -6.3999,0.705797 -12.75712,1.751179 -19.1511,2.507472 -14.66023,1.89044 -29.28489,4.084867 -43.83602,6.688354 -13.86358,2.510745 -27.73744,4.986446 -41.49374,8.044628 -13.76074,2.99874 -27.48835,6.14732 -41.24338,9.17213 -12.96347,2.88427 -25.89164,5.90987 -38.65764,9.58927 -14.261084,3.93441 -28.52252,7.8673 -42.827157,11.64121 -9.921345,2.67645 -19.761575,5.63816 -29.714626,8.19774 -6.979251,1.77686 -13.977422,3.48725 -21.0051575,5.06241 0,0 -6.2340396,4.84321 -6.2340396,4.84321 z" />
    <text
       xml:space="preserve"
       id="text84"
       style="font-style:normal;font-weight:normal;font-size:10.5833px;line-height:1.25;font-family:sans-serif;white-space:pre;shape-inside:url(#rect86);fill:#000000;fill-opacity:1;stroke:none;"><tspan
         x="16.570312"
         y="177.74265"><tspan>INKSCAPE has a steep learning curve, you know.
</tspan></tspan><tspan
         x="16.570312"
         y="190.97177"><tspan>You have to be INKLINED to learn it!</tspan></tspan></text>
    <g
       id="g983"
       transform="translate(49.136905,1.5119048)">
      <path
         style="fill:#deaa87;stroke:#000000;stroke-width:0.264583px;stroke-linecap:butt;stroke-linejoin:miter;stroke-opacity:1"
         d="m 137.37654,131.76387 c -4.51096,-1.23026 -1.30588,-0.53072 -5.61267,-1.06907 -0.53772,-0.0672 -1.0617,-0.26727 -1.60361,-0.26727 -2.07651,0 -6.09943,1.29653 -7.75082,2.67269 -0.65653,0.54711 -0.46302,0.92605 -0.80181,1.60362 -0.51492,1.02985 -0.83381,1.80688 -0.26726,2.93996 0.14268,0.28538 0.74527,1.60105 1.06907,1.87089 3.21124,2.67603 10.36814,2.37281 13.63075,0 0.36025,-0.262 0.51191,-0.73087 0.80181,-1.06908 0.40997,-0.4783 1.05462,-0.77289 1.33635,-1.33634 0.76712,-1.53426 0.53453,-3.41686 0.53453,-5.07812"
         id="path108" />
      <path
         style="fill:#784421;stroke:#000000;stroke-width:0.264583px;stroke-linecap:butt;stroke-linejoin:miter;stroke-opacity:1"
         d="m 137.37654,132.82221 c 1.06908,-0.44545 2.11654,-0.94681 3.20723,-1.33634 1.43043,-0.51087 3.07548,-0.0575 4.54358,-0.26727 1.78984,-0.25569 3.5179,-0.26727 5.34539,-0.26727 4.51344,0 8.97524,-0.44219 13.36348,-1.06908 2.68877,-0.38411 5.35578,-0.62536 8.01808,-1.06908 0.86621,-0.14436 1.80335,0.1242 2.6727,0 1.15381,-0.16483 2.32339,-0.34268 3.4745,-0.53454 0.86752,-0.14458 1.80155,0.12445 2.6727,0 1.17195,-0.16742 2.32097,-0.34228 3.4745,-0.53453 0.52727,-0.0879 1.07635,0.0879 1.60362,0 1.09487,-0.18249 2.11422,-0.58321 3.20723,-0.80181 0.94806,-0.18962 1.98778,-0.0768 2.93997,-0.26727 1.34049,-0.2681 2.65849,-0.73144 4.00904,-1.06908 0.71667,-0.17917 1.2239,0.0562 1.87089,-0.26727 0.97931,-0.48966 5.36972,0.328 6.68174,0 1.61529,-0.40383 3.19643,-0.93274 4.81085,-1.33635 0.75464,-0.18866 1.65078,0.18866 2.40542,0 1.22845,-0.30711 0.0606,-0.26727 0.80181,-0.26727 0.91692,0 2.57118,-0.10152 3.20723,0.53454 0.23907,0.23907 1.13662,6.88147 1.06908,6.94901 -0.13363,0.13363 -0.4009,0.13363 -0.53453,0.26727 -0.063,0.063 0.0797,0.22743 0,0.26727 -0.36913,0.18456 -0.93863,0.13469 -1.33635,0.26727 -3.68062,1.22687 -8.08065,1.36559 -12.02713,0.8018 -2.61266,-0.37323 -5.4161,0.43367 -8.01809,0 -0.27789,-0.0463 -0.52008,-0.26726 -0.8018,-0.26726 -0.45428,0 -0.88559,0.21092 -1.33635,0.26726 -1.13558,0.14195 -2.34682,-0.18794 -3.47451,0 -2.5747,0.42912 -5.15195,0.74423 -7.75081,1.06908 -1.22177,0.15273 -2.52826,-0.20225 -3.74178,0 -1.93832,0.32306 -3.94158,0.21149 -5.87993,0.53454 -2.53089,0.42182 -5.20868,-0.0959 -7.75081,0.26727 -1.07868,0.1541 -2.11739,0.39831 -3.20724,0.53454 -0.87597,0.1095 -1.7991,-0.1248 -2.67269,0 -0.36364,0.052 -0.70175,0.26727 -1.06908,0.26727 -0.36733,0 -0.70459,-0.22171 -1.06908,-0.26727 -1.40448,-0.17556 -0.75626,0.0945 -2.13815,0.26727 -1.36612,0.17077 -2.69038,0.004 -4.00905,0.26727 -2.22724,0.44545 -4.72176,-0.44545 -6.949,0 -0.19535,0.0391 -0.34128,0.21895 -0.53454,0.26727 -0.65552,0.16388 -1.49861,-0.21318 -2.13816,0 -0.0509,0.017 -1.28763,0.85117 -1.33635,0.53454 -0.17663,-1.14808 -0.17818,-2.31634 -0.26727,-3.4745"
         id="path110" />
      <path
         style="fill:none;stroke:#000000;stroke-width:0.264583px;stroke-linecap:butt;stroke-linejoin:miter;stroke-opacity:1"
         d="m 122.27581,133.10022 c 0.21479,0.0256 0.4557,-0.0354 0.66817,0 0.93274,0.15546 1.81375,0.53662 2.73951,0.735 0.44996,0.0964 0.88838,0.0776 1.33635,0.13363 1.17307,0.26068 0.10885,0.0698 1.00226,0.13363 0.76531,0.0547 1.77633,0.27232 2.53906,0.13364 0.26895,-0.0132 0.47936,-0.21614 0.73499,-0.26727 0.1092,-0.0218 0.22489,0.0219 0.33409,0 0.20719,-0.0414 0.40091,-0.13363 0.60136,-0.20045 0.28955,-0.0965 0.49886,-0.29081 0.80181,-0.33409 0.59513,-0.085 1.21186,0.0319 1.80407,-0.0668 0.45833,-0.0764 1.07386,-0.1594 1.5368,-0.0668 0.47494,0.095 -0.11029,0.0668 0.46772,0.0668 0.17818,0 0.35635,0 0.53454,0 0.0445,0 0.13905,0.0442 0.13363,0 -0.0228,-0.18575 -0.0891,-0.36352 -0.13363,-0.54528"
         id="path124" />
      <path
         style="fill:none;stroke:#000000;stroke-width:0.264583px;stroke-linecap:butt;stroke-linejoin:miter;stroke-opacity:1"
         d="m 121.37377,135.20497 c 0.11701,0.0482 0.24814,-0.0275 0.3675,0 0.51782,0.1195 1.01785,0.31456 1.5368,0.43431 0.45584,0.1052 0.36044,0.0409 0.83522,0.10023 0.12354,0.0155 0.24387,0.052 0.36749,0.0668 0.52158,0.0626 0.39528,0.0159 0.90203,0.0334 0.66028,0.0228 0.44246,0.0399 1.1359,0.10022 0.48929,0.0425 0.98155,0.0488 1.46998,0.10023 0.56578,0.0596 1.0973,0.14799 1.67044,0.10022 0.20912,-0.0174 0.37547,-0.1093 0.56795,-0.16704 0.0649,-0.0195 0.13473,-0.017 0.20045,-0.0334 0.22272,-0.0557 0.25056,-0.11136 0.50113,-0.16704 0.28868,-0.0642 0.60823,-0.065 0.90203,-0.10023 0.17829,-0.0214 0.35763,-0.036 0.53454,-0.0668 0.0799,-0.0139 0.15329,-0.0579 0.23386,-0.0668 0.12175,-0.0135 0.245,0 0.3675,0 0.23386,-0.0111 0.46926,-0.004 0.70158,-0.0334 0.12599,-0.0157 0.24299,-0.0753 0.3675,-0.10023 0.15443,-0.0309 0.31329,-0.0359 0.46772,-0.0668 0.12451,-0.0249 0.2424,-0.0785 0.36749,-0.10023 0.2533,-0.044 0.51307,-0.0368 0.7684,-0.0668 0.215,-0.0253 0.42917,-0.0822 0.63477,-0.13363 0.13384,-0.0335 0.29718,0.0152 0.43431,0 0.37474,-0.0416 0.76274,0.0132 1.1359,-0.0334 0.0325,-0.004 0.33325,-0.0326 0.36749,-0.0668 0.008,-0.008 -0.008,-0.0255 0,-0.0334 0.0236,-0.0236 0.0685,0.0106 0.10023,0 0.0874,-0.0291 0.0524,-0.0668 0.16704,-0.0668"
         id="path136" />
      <path
         style="fill:none;stroke:#000000;stroke-width:0.264583px;stroke-linecap:butt;stroke-linejoin:miter;stroke-opacity:1"
         d="m 121.1065,137.10927 c 0.0668,0.0223 0.13139,0.053 0.20046,0.0668 0.0874,0.0175 0.17914,-0.013 0.26727,0 0.25716,0.0381 0.51399,0.0801 0.7684,0.13364 0.61731,0.12996 1.21976,0.33669 1.83747,0.46772 1.46556,0.31088 -0.49182,-0.16572 1.33635,0.26727 0.16823,0.0398 0.33136,0.10099 0.50113,0.13364 0.34764,0.0669 0.75424,0.055 1.10249,0 0.16703,-0.0264 0.27326,-0.0823 0.43431,-0.10023 0.0902,-0.01 0.21298,0.0125 0.30068,0 0.0247,-0.004 0.0421,-0.0307 0.0668,-0.0334 0.34208,-0.038 0.72988,-0.017 1.06907,0 0.35043,0.0175 0.71917,0.004 1.06908,0.0334 0.3007,0.025 0.60061,0.0787 0.90204,0.10023 0.2994,0.0214 0.60226,0.0176 0.90203,0.0334 0.32405,0.0171 0.64473,0.0848 0.96885,0.10023 0.42073,0.02 0.84808,0 1.26953,0 0.16402,0 0.30641,0.0521 0.46773,0.0668 0.13308,0.0121 0.26781,-0.0121 0.4009,0 0.21035,0.0191 0.42012,0.0572 0.63477,0.0334 0.14187,-0.0158 0.20176,-0.0624 0.33408,-0.10023 0.0321,-0.009 0.0685,0.0106 0.10023,0 0.0381,-0.0127 0.0643,-0.0489 0.10022,-0.0668 0.0766,-0.0383 0.29528,-0.11603 0.40091,-0.13363 0.1262,-0.021 0.24036,-0.035 0.36749,-0.0668 0.0324,-0.008 0.14493,0.0221 0.16705,0 0.008,-0.008 0,-0.0223 0,-0.0334"
         id="path138" />
      <path
         style="fill:none;stroke:#000000;stroke-width:0.264583px;stroke-linecap:butt;stroke-linejoin:miter;stroke-opacity:1"
         d="m 122.20899,139.28083 c 0.26278,-0.0929 0.50809,-0.001 0.7684,0.0334 0.36274,0.0484 0.73816,0.0395 1.10249,0.10023 0.9157,0.15261 1.84089,0.39379 2.77292,0.43431 0.24476,0.0106 0.49024,-0.0111 0.73499,0 0.41175,0.0187 0.82256,0.0541 1.23612,0.0334 0.22356,-0.0112 0.44465,-0.055 0.66817,-0.0668 0.46074,-0.0243 0.94222,-0.0177 1.40317,0 0.36762,0.0141 0.7344,0.0668 1.10249,0.0668 0.18839,0 0.74776,-0.0514 0.90203,0 0.10321,0.0344 0.19013,0.0334 0.30068,0.0334 0.23846,0 1.26478,-0.0461 1.40317,0 0.0149,0.005 0.0185,0.0284 0.0334,0.0334 0.13366,0.0446 0.34298,-0.0624 0.46772,0 0.0562,0.0281 0.0649,0.0334 0.13364,0.0334"
         id="path140" />
      <path
         style="fill:none;stroke:#000000;stroke-width:0.264583px;stroke-linecap:butt;stroke-linejoin:miter;stroke-opacity:1"
         d="m 124.41396,131.93092 c 0.13268,-0.004 0.24061,0.11248 0.3675,0.13363 0.37866,0.0631 0.75584,0.1668 1.1359,0.23386 0.92992,0.16411 2.0358,0.26727 2.97337,0.26727 0.2266,0 0.42985,-0.15504 0.63476,-0.23386 0.21072,-0.081 0.42309,-0.15688 0.63477,-0.23386 0.39167,-0.14242 0.79692,-0.1527 1.20271,-0.23386 0.1028,-0.0206 0.19788,-0.0797 0.30068,-0.10022 0.088,-0.0176 0.17839,-0.0207 0.26727,-0.0334 0.25739,-0.0368 0.68758,-0.0286 0.93544,0.0334 0.1025,0.0256 0.19876,0.0724 0.30068,0.10022 0.28217,0.077 0.58403,0.093 0.86863,0.13364 0.22572,0.0322 0.44627,0.15114 0.66817,0.20045 0.13946,0.031 0.29246,0.0432 0.43431,0.0668 0.0695,0.0116 0.13098,0.0552 0.20046,0.0668 0.356,0.0593 1.109,-0.0244 1.43657,-0.13363 0.11775,-0.0393 0.2629,-0.0145 0.3675,-0.0668 0.0654,-0.0327 0.79895,0 0.90203,0"
         id="path142" />
      <path
         style="fill:#ffdd55;fill-opacity:1;stroke:#000000;stroke-width:0.264583px;stroke-linecap:butt;stroke-linejoin:miter;stroke-opacity:1"
         d="m 125.93694,131.37035 c 0.20232,0.12964 0.27688,0.34114 0.37798,0.54334 0.0298,0.0596 0.0809,0.12121 0.0945,0.18899 0.005,0.0232 -0.006,0.0482 0,0.0709 0.01,0.0339 0.0376,0.0606 0.0473,0.0945 0.008,0.0276 -0.005,0.0866 0,0.11812 0.0143,0.0859 0.0565,0.15028 0.0709,0.23623 0.0104,0.0626 0.006,0.12809 0.0236,0.18899 0.0219,0.0744 0.0684,0.13958 0.0945,0.21261 0.0202,0.0567 0.0378,0.23928 0.0472,0.28349 0.0664,0.30974 0.1651,0.61308 0.23623,0.92131 0.0108,0.0467 0.008,0.0963 0.0236,0.14174 0.009,0.0269 0.0411,0.0432 0.0473,0.0709 0.0205,0.0923 -0.007,0.18927 0,0.28349 0.023,0.2992 0.0236,0.59675 0.0236,0.89769 0,0.16618 0.0341,0.63247 0,0.8032 -0.0114,0.0568 -0.0405,0.10477 -0.0472,0.16536 -0.0234,0.21026 -0.0151,0.43346 -0.0709,0.63784 -0.0487,0.17851 -0.15479,0.33318 -0.23624,0.49609 -0.0501,0.10027 -0.0918,0.20713 -0.14174,0.30711 -0.037,0.0739 -0.0339,0.16234 -0.0709,0.23623 -0.0947,0.18937 -0.24091,0.38546 -0.35436,0.56697 -0.24032,0.38451 0.0837,-0.15676 -0.14174,0.16536 -0.12185,0.17409 -0.21748,0.35548 -0.35435,0.51972 -0.0744,0.0893 -0.18351,0.14462 -0.25986,0.23624 -0.06,0.0283 -0.0392,0.0995 -0.0709,0.14174 -0.0106,0.0141 -0.0326,0.0139 -0.0472,0.0236 -0.0468,-0.002 -0.0112,0.0348 -0.0236,0.0473 -0.0583,0.0583 -0.14733,0.11314 -0.21261,0.16536 -0.21241,0.16993 0.0834,-0.0598 -0.0709,0.0945 -0.0278,0.0278 -0.0836,0.0715 -0.11812,0.0945 -0.0207,0.0138 -0.0571,0.003 -0.0709,0.0236 -0.0138,0.0207 -0.009,0.051 -0.0236,0.0709 -0.009,0.0121 -0.12172,0.11311 -0.14174,0.11812 -0.0894,0.0223 -0.71958,0.0127 -0.75596,-0.0236 -0.0142,-0.0142 -0.0193,-0.0523 -0.0472,-0.0709 -0.0293,-0.0195 -0.0696,-0.0224 -0.0945,-0.0472 -0.0315,-0.0315 0.0501,-0.0227 -0.0236,-0.0472 -0.0149,-0.005 -0.0332,0.007 -0.0473,0 -0.055,-0.0275 -0.0867,-0.0906 -0.14174,-0.11812 -0.0141,-0.007 -0.0323,0.005 -0.0472,0 -0.0737,-0.0246 0.008,-0.0157 -0.0236,-0.0473 -0.0111,-0.0111 -0.0361,0.0111 -0.0472,0 -0.0286,-0.0286 -0.0674,-0.10109 -0.0945,-0.14174 -0.0175,-0.0262 -0.1194,-0.0971 -0.14174,-0.14174 -0.0236,-0.0472 0.0118,-0.0354 0,-0.0709 -0.0258,-0.0775 -0.0694,-0.13723 -0.0945,-0.21261 -0.0222,-0.0666 -0.0813,-0.0864 -0.11812,-0.14174 -0.025,-0.0376 -0.0614,-0.13222 -0.0945,-0.16537 -0.0479,-0.0479 -0.0602,-0.0366 -0.11811,-0.0945 -0.0134,-0.0133 -0.0297,-0.0769 -0.0473,-0.0945 -0.0302,-0.0302 -0.34986,-0.27449 -0.35435,-0.28348 -0.007,-0.0141 0.0111,-0.0361 0,-0.0472 -0.0676,-0.0676 -0.0296,0.059 -0.0709,-0.0236 -0.0101,-0.0202 -0.0135,-0.0507 -0.0236,-0.0709 -0.0217,-0.0435 -0.0491,-0.004 -0.0709,-0.0472 -0.0141,-0.0282 -0.026,-0.0968 -0.0473,-0.11812 -0.0447,-0.0447 -0.1,-0.0861 -0.14174,-0.14174 -0.0396,-0.0528 -0.048,-0.14252 -0.0945,-0.18899 -0.0125,-0.0125 -0.0348,-0.0112 -0.0473,-0.0236 -0.0738,-0.0738 -0.39634,-0.45669 -0.42522,-0.54334 -0.0317,-0.0952 -0.0632,-0.18942 -0.0945,-0.28348 -0.005,-0.0144 -0.0424,-0.0565 -0.0472,-0.0709 -0.018,-0.0539 -0.006,-0.11132 -0.0236,-0.16536 -0.021,-0.063 -0.0481,-0.12072 -0.0709,-0.18899 -0.024,-0.0722 -0.0161,-0.15029 -0.0472,-0.21261 -0.0272,-0.0545 0.006,-0.73171 0.0236,-0.8032 0.009,-0.0342 0.0387,-0.0603 0.0472,-0.0945 0.01,-0.0401 -0.004,-0.16155 0.0236,-0.18898 0.006,-0.006 0.0201,0.007 0.0236,0 0.0247,-0.0493 -0.009,-0.111 0,-0.16537 0.0173,-0.10369 0.0209,0.029 0.0472,-0.0236 0.0173,-0.0345 -0.008,-0.10344 0,-0.14174 0.0204,-0.10178 0.0389,-0.21129 0.0709,-0.3071 0.0142,-0.0425 -0.0142,-0.0992 0,-0.14174 0.0526,-0.15782 0.0614,-0.33081 0.0945,-0.4961 0.007,-0.0342 0.0404,-0.0839 0.0473,-0.11811 0.006,-0.0309 -0.0223,-0.0722 0,-0.0945 0.006,-0.006 0.018,0.006 0.0236,0 0.0223,-0.0223 -0.008,-0.0639 0,-0.0945 0.0102,-0.0409 0.0575,-0.0779 0.0709,-0.11812 0.005,-0.0149 -0.005,-0.0323 0,-0.0473 0.014,-0.042 0.0813,-0.0785 0.0945,-0.11811 0.005,-0.0149 -0.005,-0.0323 0,-0.0472 0.0249,-0.0748 0.40099,-0.401 0.47247,-0.47247 0.0715,-0.0715 0.12201,-0.14564 0.18899,-0.21261 0.0258,-0.0258 0.0987,-0.0514 0.11811,-0.0709 0.0288,-0.0288 0.0111,-0.0528 0.0473,-0.0709 0.0841,-0.042 0.18914,-0.11826 0.25986,-0.18898 0.0351,-0.0351 0.0509,-0.0891 0.0945,-0.11812 0.0152,-0.0102 0.0843,-0.037 0.0945,-0.0472 0.0125,-0.0125 0.0112,-0.0348 0.0236,-0.0472 0.0538,-0.0538 0.19896,-0.0539 0.25985,-0.0945 0.0719,-0.0479 0.13354,-0.0729 0.21261,-0.11811 0.0814,-0.0465 0.12956,-0.10594 0.18899,-0.16537 0.02,-0.0199 0.27146,-0.15645 0.30711,-0.16536 0.0999,-0.025 0.2058,-0.0371 0.30711,-0.0709 0.0476,-0.0158 0.0927,-0.0611 0.14174,-0.0709 0.0386,-0.008 0.0816,0.0146 0.11811,0 0.0264,-0.0105 0.0439,-0.0383 0.0709,-0.0472 0.0567,-0.0189 0.1323,0.0189 0.18899,0 0.0602,-0.0201 0.10701,-0.0695 0.16537,-0.0945 0.0987,-0.0423 0.20622,-0.0609 0.3071,-0.0945 0.0149,-0.005 0.0332,0.007 0.0472,0 0.0407,-0.0204 0.0736,-0.0796 0.11812,-0.0945 0.19001,-0.0633 0.27619,-0.11811 0.47247,-0.11811"
         id="path148" />
    </g>
  </g>
</svg>
